<svg class="svg-icon" style="width: 1em; height: 1em;vertical-align: middle;fill: currentColor;overflow: hidden;" viewBox="0 0 1024 1024" version="1.1" xmlns="http://www.w3.org/2000/svg"><path d="M501.76 762.56a42.24 42.24 0 0 0-41.76 58.4c13.12 26.72 67.04 29.6 80-3.68a39.36 39.36 0 0 0-38.24-54.72z m24.64 49.92c-8.32 22.56-44.96 20.64-53.92 2.4a28.64 28.64 0 0 1 28.32-39.52 26.72 26.72 0 0 1 25.6 37.12z m-25.28 48a34.24 34.24 0 0 0-33.92 48c10.56 21.6 54.4 24 64-2.88a32 32 0 0 0-30.08-45.44z m17.76 39.52a22.88 22.88 0 0 1-39.2 1.76 20.8 20.8 0 0 1 20.64-28.8 19.36 19.36 0 0 1 18.56 26.72z m128-110.08a32 32 0 0 0-30.4-44.32 34.24 34.24 0 0 0-33.92 48c10.4 20.64 54.24 22.4 64.16-4z m-51.84-3.04a20.8 20.8 0 0 1 20.64-28.8 19.36 19.36 0 0 1 18.56 27.04 22.88 22.88 0 0 1-39.36 1.44z m-190.72-38.88a34.24 34.24 0 0 0-33.92 48c10.56 21.6 54.4 24 64-2.88a32 32 0 0 0-30.08-45.12z m17.76 39.52a22.88 22.88 0 0 1-39.2 1.76 20.8 20.8 0 0 1 20.64-28.8 19.36 19.36 0 0 1 18.56 27.2z m-50.72 39.68a34.24 34.24 0 0 0-33.92 48c10.56 21.6 54.4 24 64-2.88a32 32 0 0 0-30.08-45.12z m17.76 39.52a22.88 22.88 0 0 1-39.2 1.76 20.8 20.8 0 0 1 20.64-28.8 19.36 19.36 0 0 1 18.56 27.04z m256-43.52a34.24 34.24 0 0 0-33.92 48c10.56 21.6 54.4 24 64-2.88a32 32 0 0 0-29.28-45.12z m17.76 39.52A22.88 22.88 0 0 1 624 864a20.8 20.8 0 0 1 20.64-28.8 19.36 19.36 0 0 1 19.04 27.52z m252.32-489.6c-3.2-12-43.36-115.2-46.4-120.16s-52-1.92-62.08 0-24.64 20.48-24.64 20.48-97.44-213.6-105.6-219.52-131.04-3.36-136.96 0-3.04 146.08-3.04 146.08a186.88 186.88 0 0 0-56.48-1.12s-5.76-136.96-7.84-141.92-100.16-4.96-112.96 0-96 132.96-153.76 264.16a1136 1136 0 0 0-76.64 251.04c-4.96 3.04-18.88 2.4-21.92 7.52a552.32 552.32 0 0 0 16 122.72A24.64 24.64 0 0 0 148.8 720l20.8 40.64a195.04 195.04 0 0 0 51.36 63.04 122.72 122.72 0 0 0-11.36 33.28c0 12 112 117.76 296.48 116s298.56-120 301.44-129.12a194.88 194.88 0 0 0 1.28-39.04s29.6-22.56 63.04-94.24a246.4 246.4 0 0 0 15.04-147.36s22.72-10.88 25.12-19.2 7.2-158.88 4-170.88zM573.12 88c6.24-6.56 77.92-6.56 84.96 0s112 230.72 113.76 234.72a130.4 130.4 0 0 1-1.6 23.04A224 224 0 0 0 656 264.32c-70.4-18.56-86.4-16-86.4-18.24s1.6-156 3.52-158.08z m0 183.04a442.72 442.72 0 0 1 117.76 38.56 180 180 0 0 1 74.56 80s-9.12 43.2-11.04 46.24c0 0-3.36 3.04-8.16 6.88a58.88 58.88 0 0 0-8.32-34.08A67.2 67.2 0 0 0 656 385.92a61.6 61.6 0 0 0-33.6 73.76 53.28 53.28 0 0 0 55.52 37.76l-61.76 48a115.36 115.36 0 0 0-24.8-40.48 113.12 113.12 0 0 0-24.16-11.52s3.68-218.4 5.6-222.4z m155.68 186.08l-32 25.12c-28.16 8-56.8-3.68-61.76-27.2a48 48 0 0 1 26.4-57.92A52.96 52.96 0 0 1 726.08 416a44.16 44.16 0 0 1 2.56 41.12z m-121.76 158.24c2.88 68-45.44 105.44-104.8 108.16a96 96 0 0 1-96.8-88.64c-2.72-38.88 1.44-130.08 99.36-131.52 55.2-0.64 99.2 44.16 102.08 112.16z m-142.08-389.12a107.04 107.04 0 0 1 43.84-6.88 64 64 0 0 1 37.12 8.32c2.08 4 1.12 253.6-3.84 254.56s-64 6.24-66.08 0-14.88-250.88-11.04-256z m-144-69.12c26.08-42.56 43.52-71.84 50.56-72.96s76 0 77.12 4.48 0 116.96 0 116.96-19.68 14.4-19.52 24.32V240a1048.48 1048.48 0 0 0-188.32 80s54.56-120.32 80.8-162.88z m-116.96 253.12c30.72-45.76 96-86.56 133.92-104.8a603.04 603.04 0 0 1 96.96-36c2.4 0 13.28 192 13.28 192l-19.84-27.68s-7.2 5.44-6.56 8.16 28.32 46.08 28.32 48-6.24 5.76-9.76 8.8a34.56 34.56 0 0 1-4.96 3.84 380.32 380.32 0 0 0-33.28-43.36c-3.04 0-7.52 4.8-6.88 5.76s32 43.04 30.56 44.8-13.76 13.28-13.76 13.28a246.56 246.56 0 0 0-27.04-35.52c-3.36 0-7.84 5.76-7.2 7.2s27.04 38.08 26.4 39.84a128 128 0 0 1-8.48 11.2 368 368 0 0 0-30.08-36.8c-2.4 0-7.84 6.56-6.88 8.16s29.12 37.44 29.12 38.4-6.4 12.16-7.04 14.4l-0.96 3.36a617.6 617.6 0 0 0-40.32-50.56c-2.24 0-7.2 3.84-6.56 5.76s41.28 60.16 41.28 60.16a141.28 141.28 0 0 1-17.6 1.76c-0.96 0-43.04-53.76-44.16-53.44s-8.48 7.04-8.48 8.32 36.96 48 35.68 48a167.84 167.84 0 0 1-29.28 1.6c-2.72-1.6-26.4-37.12-28.16-37.12s-7.84 4.8-7.2 6.4 19.36 32 18.24 32-62.08-5.12-92.8-9.12-46.56-9.76-46.24-13.44 17.44-115.36 49.76-163.36zM154.72 692.16c-2.56-1.92-24.32-92.48-16-93.76 16-2.24 88.8 16 144.96 18.08s94.56 1.12 94.56 2.56 2.08 25.92 2.08 25.92-223.04 49.12-225.6 47.2z m39.68 61.76c-10.4-21.76-17.28-40.64-13.92-42.24s203.52-46.24 205.28-44.8a205.44 205.44 0 0 1 9.44 18.88 242.08 242.08 0 0 1-27.2 24.48c0-1.92-13.44-23.2-16-22.72s-7.52 2.72-6.88 4.64 12.96 25.28 12.96 25.28-12.32 12.8-13.76 10.72A410.4 410.4 0 0 0 320 692.8c-1.92 0-7.36 6.72-7.36 6.72a244 244 0 0 1 19.2 37.6 87.36 87.36 0 0 1-16 10.24 273.12 273.12 0 0 0-30.88-41.44c-4 0-12.96 2.72-12.32 7.2s27.36 43.52 25.92 44.48l-12.8 8.8s-32-49.92-34.56-49.76a80.96 80.96 0 0 0-12.8 6.24s33.6 53.28 33.6 54.88a125.12 125.12 0 0 1-11.36 9.28 610.4 610.4 0 0 0-42.72-59.2c-2.4 1.6-10.88 4.8-9.92 6.72s39.36 64 39.36 64l-10.72 10.72a321.92 321.92 0 0 1-42.08-55.52z m304 197.44c-179.68 7.52-253.28-91.04-252-103.36s156.16-140.16 165.76-135.84c0 0 25.76 38.56 91.2 35.2A156.32 156.32 0 0 0 608 696l113.44 68.8c32.96 19.84 52.96 45.44 52.64 52.96S677.44 944 498.08 951.2z m325.92-212.8a83.68 83.68 0 0 1-14.56 18.72 199.04 199.04 0 0 0-10.72-39.36c-3.04 0-13.44 2.72-11.84 6.72s10.88 45.76 11.04 48-11.2 13.28-11.2 13.28a22.56 22.56 0 0 1-5.12-4.96c-1.12-1.92-14.4-69.28-16-70.24s-13.12-4.8-12.96 0 12.16 59.2 10.24 58.88-27.2-19.68-27.2-19.68 0-43.04-4.96-45.92-12.64-5.76-12.64-3.68 1.76 37.44 1.76 37.44l-19.84-16s2.08-22.08-0.96-24-16-6.24-16-4.64-2.72 16-2.72 16-52.64-29.92-53.12-32a26.4 26.4 0 0 1 1.76-8.48c2.56 0 217.44 22.08 217.12 25.12s-16.32 34.24-22.08 44.8zM864 638.72a62.08 62.08 0 0 1-8.96 30.24s-224-16-224-17.44 0.96-27.52 0.96-27.52c4.96 0 230.08-46.08 231.68-42.24a464 464 0 0 1 0.32 56.96z m19.68-92.96S633.6 603.84 630.56 600s-12.64-32-7.68-34.88 160-126.24 163.36-132.32 10.24-84.16 12.16-90.24S816 288 816 288s26.88-5.6 32.96 0a802.88 802.88 0 0 1 39.04 97.28c0.32 3.52-4.48 160.64-4.48 160.64zM359.52 152.8a42.4 42.4 0 0 0-23.68 64c11.84 16 59.36 16 67.68-16.8a37.12 37.12 0 0 0-44-47.2z m33.76 44.16a30.56 30.56 0 0 1-48.8 12.16 30.56 30.56 0 0 1 17.12-46.08 26.72 26.72 0 0 1 31.52 33.92z m419.36 158.24a532.96 532.96 0 0 0-8.8 62.24c0 1.92 16.96 0 16.96 0s5.28-58.08 4.32-60.16a16 16 0 0 0-12.48-2.08z m-133.76-158.88a37.12 37.12 0 0 0-44-47.2 42.4 42.4 0 0 0-23.68 64c11.84 16.48 59.36 16 67.68-16.64zM636.96 160a26.72 26.72 0 0 1 32 33.92 30.56 30.56 0 0 1-48.8 12.16A30.56 30.56 0 0 1 636.96 160zM330.4 496a55.36 55.36 0 0 0 29.76-82.56 67.2 67.2 0 0 0-82.56-23.36A61.6 61.6 0 0 0 244.16 464c6.72 32 48 46.72 86.24 32z m-46.72-94.72a52.96 52.96 0 0 1 64.96 18.4 43.68 43.68 0 0 1-23.52 64.96c-30.08 11.68-62.56 0-67.84-25.44a48 48 0 0 1 26.4-57.92z m35.36-44.16a71.52 71.52 0 0 1 21.12-17.92c16-10.88 41.6-16.8 41.6-18.88a36.48 36.48 0 0 0-3.68-12c-1.6-1.92-5.44 1.12-37.12 16a119.52 119.52 0 0 0-40 25.76c0.48 3.52 18.08 7.2 18.08 7.2zM497.6 528c-32 6.56-48 44.96-36.96 78.24s80 28.48 90.4-4.8-13.44-81.28-53.44-73.44z m41.28 67.2c-8 24.32-57.6 27.84-66.24 3.52a43.2 43.2 0 0 1 27.04-57.28c29.12-5.6 47.04 30.08 39.04 54.4z" fill="#1D1D1B" /></svg>